  0
SECTION
  2
BLOCKS
  0
ENDSEC
  0
SECTION
  2
ENTITIES
  0
LINE
  8
0
 10
2.617
 20
-54.9377
 11
6.0961
 21
-54.6611
  0
LINE
  8
0
 10
6.0961
 20
-54.6611
 11
9.55064
 21
-54.1644
  0
LINE
  8
0
 10
9.55064
 20
-54.1644
 11
12.9667
 21
-53.4496
  0
LINE
  8
0
 10
12.9667
 20
-53.4496
 11
16.3306
 21
-52.5196
  0
LINE
  8
0
 10
16.3306
 20
-52.5196
 11
19.6287
 21
-51.3781
  0
LINE
  8
0
 10
19.6287
 20
-51.3781
 11
22.8478
 21
-50.0298
  0
LINE
  8
0
 10
22.8478
 20
-50.0298
 11
25.9749
 21
-48.4799
  0
LINE
  8
0
 10
25.9749
 20
-48.4799
 11
28.9974
 21
-46.7349
  0
LINE
  8
0
 10
28.9974
 20
-46.7349
 11
31.9031
 21
-44.8017
  0
LINE
  8
0
 10
31.9031
 20
-44.8017
 11
34.6804
 21
-42.688
  0
LINE
  8
0
 10
34.6804
 20
-42.688
 11
37.318
 21
-40.4025
  0
LINE
  8
0
 10
37.318
 20
-40.4025
 11
39.8054
 21
-37.9543
  0
LINE
  8
0
 10
39.8054
 20
-37.9543
 11
42.1324
 21
-35.3533
  0
LINE
  8
0
 10
42.1324
 20
-35.3533
 11
44.2899
 21
-32.6099
  0
LINE
  8
0
 10
44.2899
 20
-32.6099
 11
46.2689
 21
-29.7352
  0
LINE
  8
0
 10
46.2689
 20
-29.7352
 11
48.0617
 21
-26.7408
  0
LINE
  8
0
 10
48.0617
 20
-26.7408
 11
49.6609
 21
-23.6387
  0
LINE
  8
0
 10
49.6609
 20
-23.6387
 11
51.0602
 21
-20.4414
  0
LINE
  8
0
 10
51.0602
 20
-20.4414
 11
52.2539
 21
-17.1618
  0
LINE
  8
0
 10
52.2539
 20
-17.1618
 11
53.2372
 21
-13.8131
  0
LINE
  8
0
 10
53.2372
 20
-13.8131
 11
54.0061
 21
-10.4088
  0
LINE
  8
0
 10
54.0061
 20
-10.4088
 11
54.5575
 21
-6.96257
  0
LINE
  8
0
 10
54.5575
 20
-6.96257
 11
54.8893
 21
-3.48831
  0
LINE
  8
0
 10
54.8893
 20
-3.48831
 11
55
 21
0
  0
LINE
  8
0
 10
55
 20
0
 11
54.8893
 21
3.48831
  0
LINE
  8
0
 10
54.8893
 20
3.48831
 11
54.5575
 21
6.96257
  0
LINE
  8
0
 10
54.5575
 20
6.96257
 11
54.0061
 21
10.4088
  0
LINE
  8
0
 10
54.0061
 20
10.4088
 11
53.2372
 21
13.8131
  0
LINE
  8
0
 10
53.2372
 20
13.8131
 11
52.2539
 21
17.1618
  0
LINE
  8
0
 10
52.2539
 20
17.1618
 11
51.0602
 21
20.4414
  0
LINE
  8
0
 10
51.0602
 20
20.4414
 11
49.6609
 21
23.6387
  0
LINE
  8
0
 10
49.6609
 20
23.6387
 11
48.0617
 21
26.7408
  0
LINE
  8
0
 10
48.0617
 20
26.7408
 11
46.2689
 21
29.7352
  0
LINE
  8
0
 10
46.2689
 20
29.7352
 11
44.2899
 21
32.6099
  0
LINE
  8
0
 10
44.2899
 20
32.6099
 11
42.1324
 21
35.3533
  0
LINE
  8
0
 10
42.1324
 20
35.3533
 11
39.8054
 21
37.9543
  0
LINE
  8
0
 10
39.8054
 20
37.9543
 11
37.318
 21
40.4025
  0
LINE
  8
0
 10
37.318
 20
40.4025
 11
34.6804
 21
42.688
  0
LINE
  8
0
 10
34.6804
 20
42.688
 11
31.9031
 21
44.8017
  0
LINE
  8
0
 10
31.9031
 20
44.8017
 11
28.9974
 21
46.7349
  0
LINE
  8
0
 10
28.9974
 20
46.7349
 11
25.9749
 21
48.4799
  0
LINE
  8
0
 10
25.9749
 20
48.4799
 11
22.8478
 21
50.0298
  0
LINE
  8
0
 10
22.8478
 20
50.0298
 11
19.6287
 21
51.3781
  0
LINE
  8
0
 10
19.6287
 20
51.3781
 11
16.3306
 21
52.5196
  0
LINE
  8
0
 10
16.3306
 20
52.5196
 11
12.9667
 21
53.4496
  0
LINE
  8
0
 10
12.9667
 20
53.4496
 11
9.55064
 21
54.1644
  0
LINE
  8
0
 10
9.55064
 20
54.1644
 11
6.0961
 21
54.6611
  0
LINE
  8
0
 10
6.0961
 20
54.6611
 11
2.617
 21
54.9377
  0
LINE
  8
0
 10
2.617
 20
54.9377
 11
-0.87262
 21
54.9931
  0
LINE
  8
0
 10
-0.87262
 20
54.9931
 11
-4.35873
 21
54.827
  0
LINE
  8
0
 10
-4.35873
 20
54.827
 11
-7.8273
 21
54.4402
  0
LINE
  8
0
 10
-7.8273
 20
54.4402
 11
-11.2644
 21
53.8341
  0
LINE
  8
0
 10
-11.2644
 20
53.8341
 11
-14.6561
 21
53.0113
  0
LINE
  8
0
 10
-14.6561
 20
53.0113
 11
-17.9887
 21
51.975
  0
LINE
  8
0
 10
-17.9887
 20
51.975
 11
-21.249
 21
50.7295
  0
LINE
  8
0
 10
-21.249
 20
50.7295
 11
-24.4237
 21
49.2796
  0
LINE
  8
0
 10
-24.4237
 20
49.2796
 11
-27.5
 21
47.6314
  0
LINE
  8
0
 10
-27.5
 20
47.6314
 11
-30.4656
 21
45.7913
  0
LINE
  8
0
 10
-30.4656
 20
45.7913
 11
-33.3085
 21
43.7669
  0
LINE
  8
0
 10
-33.3085
 20
43.7669
 11
-36.0173
 21
41.5662
  0
LINE
  8
0
 10
-36.0173
 20
41.5662
 11
-38.5811
 21
39.1982
  0
LINE
  8
0
 10
-38.5811
 20
39.1982
 11
-40.9895
 21
36.6723
  0
LINE
  8
0
 10
-40.9895
 20
36.6723
 11
-43.2329
 21
33.9987
  0
LINE
  8
0
 10
-43.2329
 20
33.9987
 11
-45.3022
 21
31.1883
  0
LINE
  8
0
 10
-45.3022
 20
31.1883
 11
-47.1891
 21
28.2522
  0
LINE
  8
0
 10
-47.1891
 20
28.2522
 11
-48.8859
 21
25.2025
  0
LINE
  8
0
 10
-48.8859
 20
25.2025
 11
-50.386
 21
22.0512
  0
LINE
  8
0
 10
-50.386
 20
22.0512
 11
-51.6831
 21
18.8111
  0
LINE
  8
0
 10
-51.6831
 20
18.8111
 11
-52.7721
 21
15.4953
  0
LINE
  8
0
 10
-52.7721
 20
15.4953
 11
-53.6486
 21
12.1171
  0
LINE
  8
0
 10
-53.6486
 20
12.1171
 11
-54.3091
 21
8.69006
  0
LINE
  8
0
 10
-54.3091
 20
8.69006
 11
-54.7509
 21
5.22807
  0
LINE
  8
0
 10
-54.7509
 20
5.22807
 11
-54.9723
 21
1.74503
  0
LINE
  8
0
 10
-54.9723
 20
1.74503
 11
-54.9723
 21
-1.74503
  0
LINE
  8
0
 10
-54.9723
 20
-1.74503
 11
-54.7509
 21
-5.22807
  0
LINE
  8
0
 10
-54.7509
 20
-5.22807
 11
-54.3091
 21
-8.69006
  0
LINE
  8
0
 10
-54.3091
 20
-8.69006
 11
-53.6486
 21
-12.1171
  0
LINE
  8
0
 10
-53.6486
 20
-12.1171
 11
-52.7721
 21
-15.4953
  0
LINE
  8
0
 10
-52.7721
 20
-15.4953
 11
-51.6831
 21
-18.8111
  0
LINE
  8
0
 10
-51.6831
 20
-18.8111
 11
-50.386
 21
-22.0512
  0
LINE
  8
0
 10
-50.386
 20
-22.0512
 11
-48.8859
 21
-25.2025
  0
LINE
  8
0
 10
-48.8859
 20
-25.2025
 11
-47.1891
 21
-28.2522
  0
LINE
  8
0
 10
-47.1891
 20
-28.2522
 11
-45.3022
 21
-31.1883
  0
LINE
  8
0
 10
-45.3022
 20
-31.1883
 11
-43.2329
 21
-33.9987
  0
LINE
  8
0
 10
-43.2329
 20
-33.9987
 11
-40.9895
 21
-36.6723
  0
LINE
  8
0
 10
-40.9895
 20
-36.6723
 11
-38.5811
 21
-39.1982
  0
LINE
  8
0
 10
-38.5811
 20
-39.1982
 11
-36.0173
 21
-41.5662
  0
LINE
  8
0
 10
-36.0173
 20
-41.5662
 11
-33.3085
 21
-43.7669
  0
LINE
  8
0
 10
-33.3085
 20
-43.7669
 11
-30.4656
 21
-45.7913
  0
LINE
  8
0
 10
-30.4656
 20
-45.7913
 11
-27.5
 21
-47.6314
  0
LINE
  8
0
 10
-27.5
 20
-47.6314
 11
-24.4237
 21
-49.2796
  0
LINE
  8
0
 10
-24.4237
 20
-49.2796
 11
-21.249
 21
-50.7295
  0
LINE
  8
0
 10
-21.249
 20
-50.7295
 11
-17.9887
 21
-51.975
  0
LINE
  8
0
 10
-17.9887
 20
-51.975
 11
-14.6561
 21
-53.0113
  0
LINE
  8
0
 10
-14.6561
 20
-53.0113
 11
-11.2644
 21
-53.8341
  0
LINE
  8
0
 10
-11.2644
 20
-53.8341
 11
-7.8273
 21
-54.4402
  0
LINE
  8
0
 10
-7.8273
 20
-54.4402
 11
-4.35873
 21
-54.827
  0
LINE
  8
0
 10
-4.35873
 20
-54.827
 11
-0.87262
 21
-54.9931
  0
LINE
  8
0
 10
-0.87262
 20
-54.9931
 11
2.617
 21
-54.9377
  0
LINE
  8
0
 10
-0.13472
 20
44.8053
 11
-0.241928
 21
44.8173
  0
LINE
  8
0
 10
-0.241928
 20
44.8173
 11
-0.34816
 21
44.836
  0
LINE
  8
0
 10
-0.34816
 20
44.836
 11
-0.453003
 21
44.8615
  0
LINE
  8
0
 10
-0.453003
 20
44.8615
 11
-0.556015
 21
44.8935
  0
LINE
  8
0
 10
-0.556015
 20
44.8935
 11
-0.656784
 21
44.932
  0
LINE
  8
0
 10
-0.656784
 20
44.932
 11
-0.754898
 21
44.9768
  0
LINE
  8
0
 10
-0.754898
 20
44.9768
 11
-0.849991
 21
45.0278
  0
LINE
  8
0
 10
-0.849991
 20
45.0278
 11
-0.94165
 21
45.0846
  0
LINE
  8
0
 10
-0.94165
 20
45.0846
 11
-1.02953
 21
45.1472
  0
LINE
  8
0
 10
-1.02953
 20
45.1472
 11
-1.11325
 21
45.2152
  0
LINE
  8
0
 10
-1.11325
 20
45.2152
 11
-1.1925
 21
45.2884
  0
LINE
  8
0
 10
-1.1925
 20
45.2884
 11
-1.26694
 21
45.3665
  0
LINE
  8
0
 10
-1.26694
 20
45.3665
 11
-1.33629
 21
45.4491
  0
LINE
  8
0
 10
-1.33629
 20
45.4491
 11
-1.40024
 21
45.536
  0
LINE
  8
0
 10
-1.40024
 20
45.536
 11
-1.45856
 21
45.6267
  0
LINE
  8
0
 10
-1.45856
 20
45.6267
 11
-1.51102
 21
45.721
  0
LINE
  8
0
 10
-1.51102
 20
45.721
 11
-1.55737
 21
45.8184
  0
LINE
  8
0
 10
-1.55737
 20
45.8184
 11
-1.59747
 21
45.9186
  0
LINE
  8
0
 10
-1.59747
 20
45.9186
 11
-1.63113
 21
46.021
  0
LINE
  8
0
 10
-1.63113
 20
46.021
 11
-1.65822
 21
46.1255
  0
LINE
  8
0
 10
-1.65822
 20
46.1255
 11
-1.67863
 21
46.2314
  0
LINE
  8
0
 10
-1.67863
 20
46.2314
 11
-1.69229
 21
46.3384
  0
LINE
  8
0
 10
-1.69229
 20
46.3384
 11
-1.69914
 21
46.4461
  0
LINE
  8
0
 10
-1.69914
 20
46.4461
 11
-1.69914
 21
46.5539
  0
LINE
  8
0
 10
-1.69914
 20
46.5539
 11
-1.69229
 21
46.6616
  0
LINE
  8
0
 10
-1.69229
 20
46.6616
 11
-1.67863
 21
46.7686
  0
LINE
  8
0
 10
-1.67863
 20
46.7686
 11
-1.65822
 21
46.8745
  0
LINE
  8
0
 10
-1.65822
 20
46.8745
 11
-1.63113
 21
46.9789
  0
LINE
  8
0
 10
-1.63113
 20
46.9789
 11
-1.59747
 21
47.0814
  0
LINE
  8
0
 10
-1.59747
 20
47.0814
 11
-1.55737
 21
47.1816
  0
LINE
  8
0
 10
-1.55737
 20
47.1816
 11
-1.51102
 21
47.279
  0
LINE
  8
0
 10
-1.51102
 20
47.279
 11
-1.45856
 21
47.3732
  0
LINE
  8
0
 10
-1.45856
 20
47.3732
 11
-1.40024
 21
47.464
  0
LINE
  8
0
 10
-1.40024
 20
47.464
 11
-1.33629
 21
47.5509
  0
LINE
  8
0
 10
-1.33629
 20
47.5509
 11
-1.26694
 21
47.6335
  0
LINE
  8
0
 10
-1.26694
 20
47.6335
 11
-1.1925
 21
47.7116
  0
LINE
  8
0
 10
-1.1925
 20
47.7116
 11
-1.11325
 21
47.7848
  0
LINE
  8
0
 10
-1.11325
 20
47.7848
 11
-1.02953
 21
47.8528
  0
LINE
  8
0
 10
-1.02953
 20
47.8528
 11
-0.94165
 21
47.9154
  0
LINE
  8
0
 10
-0.94165
 20
47.9154
 11
-0.849991
 21
47.9722
  0
LINE
  8
0
 10
-0.849991
 20
47.9722
 11
-0.754898
 21
48.0232
  0
LINE
  8
0
 10
-0.754898
 20
48.0232
 11
-0.656784
 21
48.068
  0
LINE
  8
0
 10
-0.656784
 20
48.068
 11
-0.556015
 21
48.1065
  0
LINE
  8
0
 10
-0.556015
 20
48.1065
 11
-0.453003
 21
48.1385
  0
LINE
  8
0
 10
-0.453003
 20
48.1385
 11
-0.34816
 21
48.164
  0
LINE
  8
0
 10
-0.34816
 20
48.164
 11
-0.241928
 21
48.1827
  0
LINE
  8
0
 10
-0.241928
 20
48.1827
 11
-0.13472
 21
48.1946
  0
LINE
  8
0
 10
-0.13472
 20
48.1946
 11
-0.0269623
 21
48.1998
  0
LINE
  8
0
 10
-0.0269623
 20
48.1998
 11
0.0808868
 21
48.1981
  0
LINE
  8
0
 10
0.0808868
 20
48.1981
 11
0.188416
 21
48.1895
  0
LINE
  8
0
 10
0.188416
 20
48.1895
 11
0.295197
 21
48.1742
  0
LINE
  8
0
 10
0.295197
 20
48.1742
 11
0.400787
 21
48.1521
  0
LINE
  8
0
 10
0.400787
 20
48.1521
 11
0.504761
 21
48.1233
  0
LINE
  8
0
 10
0.504761
 20
48.1233
 11
0.606705
 21
48.088
  0
LINE
  8
0
 10
0.606705
 20
48.088
 11
0.706192
 21
48.0464
  0
LINE
  8
0
 10
0.706192
 20
48.0464
 11
0.802856
 21
47.9985
  0
LINE
  8
0
 10
0.802856
 20
47.9985
 11
0.896271
 21
47.9445
  0
LINE
  8
0
 10
0.896271
 20
47.9445
 11
0.986084
 21
47.8848
  0
LINE
  8
0
 10
0.986084
 20
47.8848
 11
1.07193
 21
47.8194
  0
LINE
  8
0
 10
1.07193
 20
47.8194
 11
1.15346
 21
47.7488
  0
LINE
  8
0
 10
1.15346
 20
47.7488
 11
1.23035
 21
47.6731
  0
LINE
  8
0
 10
1.23035
 20
47.6731
 11
1.30226
 21
47.5927
  0
LINE
  8
0
 10
1.30226
 20
47.5927
 11
1.36896
 21
47.5079
  0
LINE
  8
0
 10
1.36896
 20
47.5079
 11
1.43013
 21
47.4191
  0
LINE
  8
0
 10
1.43013
 20
47.4191
 11
1.48553
 21
47.3265
  0
LINE
  8
0
 10
1.48553
 20
47.3265
 11
1.53497
 21
47.2307
  0
LINE
  8
0
 10
1.53497
 20
47.2307
 11
1.57822
 21
47.1318
  0
LINE
  8
0
 10
1.57822
 20
47.1318
 11
1.61511
 21
47.0305
  0
LINE
  8
0
 10
1.61511
 20
47.0305
 11
1.64551
 21
46.9269
  0
LINE
  8
0
 10
1.64551
 20
46.9269
 11
1.66927
 21
46.8217
  0
LINE
  8
0
 10
1.66927
 20
46.8217
 11
1.68631
 21
46.7152
  0
LINE
  8
0
 10
1.68631
 20
46.7152
 11
1.69656
 21
46.6078
  0
LINE
  8
0
 10
1.69656
 20
46.6078
 11
1.7
 21
46.5
  0
LINE
  8
0
 10
1.7
 20
46.5
 11
1.69656
 21
46.3922
  0
LINE
  8
0
 10
1.69656
 20
46.3922
 11
1.68631
 21
46.2848
  0
LINE
  8
0
 10
1.68631
 20
46.2848
 11
1.66927
 21
46.1783
  0
LINE
  8
0
 10
1.66927
 20
46.1783
 11
1.64551
 21
46.073
  0
LINE
  8
0
 10
1.64551
 20
46.073
 11
1.61511
 21
45.9695
  0
LINE
  8
0
 10
1.61511
 20
45.9695
 11
1.57822
 21
45.8682
  0
LINE
  8
0
 10
1.57822
 20
45.8682
 11
1.53497
 21
45.7693
  0
LINE
  8
0
 10
1.53497
 20
45.7693
 11
1.48553
 21
45.6735
  0
LINE
  8
0
 10
1.48553
 20
45.6735
 11
1.43013
 21
45.5809
  0
LINE
  8
0
 10
1.43013
 20
45.5809
 11
1.36896
 21
45.4921
  0
LINE
  8
0
 10
1.36896
 20
45.4921
 11
1.30226
 21
45.4073
  0
LINE
  8
0
 10
1.30226
 20
45.4073
 11
1.23035
 21
45.3269
  0
LINE
  8
0
 10
1.23035
 20
45.3269
 11
1.15346
 21
45.2512
  0
LINE
  8
0
 10
1.15346
 20
45.2512
 11
1.07193
 21
45.1805
  0
LINE
  8
0
 10
1.07193
 20
45.1805
 11
0.986084
 21
45.1152
  0
LINE
  8
0
 10
0.986084
 20
45.1152
 11
0.896271
 21
45.0555
  0
LINE
  8
0
 10
0.896271
 20
45.0555
 11
0.802856
 21
45.0015
  0
LINE
  8
0
 10
0.802856
 20
45.0015
 11
0.706192
 21
44.9536
  0
LINE
  8
0
 10
0.706192
 20
44.9536
 11
0.606705
 21
44.9119
  0
LINE
  8
0
 10
0.606705
 20
44.9119
 11
0.504761
 21
44.8767
  0
LINE
  8
0
 10
0.504761
 20
44.8767
 11
0.400787
 21
44.8479
  0
LINE
  8
0
 10
0.400787
 20
44.8479
 11
0.295197
 21
44.8258
  0
LINE
  8
0
 10
0.295197
 20
44.8258
 11
0.188416
 21
44.8105
  0
LINE
  8
0
 10
0.188416
 20
44.8105
 11
0.0808868
 21
44.8019
  0
LINE
  8
0
 10
0.0808868
 20
44.8019
 11
-0.0269623
 21
44.8002
  0
LINE
  8
0
 10
-0.0269623
 20
44.8002
 11
-0.13472
 21
44.8053
  0
LINE
  8
0
 10
-40.4049
 20
-24.9446
 11
-40.5121
 21
-24.9327
  0
LINE
  8
0
 10
-40.5121
 20
-24.9327
 11
-40.6183
 21
-24.914
  0
LINE
  8
0
 10
-40.6183
 20
-24.914
 11
-40.7232
 21
-24.8885
  0
LINE
  8
0
 10
-40.7232
 20
-24.8885
 11
-40.8262
 21
-24.8565
  0
LINE
  8
0
 10
-40.8262
 20
-24.8565
 11
-40.927
 21
-24.818
  0
LINE
  8
0
 10
-40.927
 20
-24.818
 11
-41.0251
 21
-24.7732
  0
LINE
  8
0
 10
-41.0251
 20
-24.7732
 11
-41.1202
 21
-24.7222
  0
LINE
  8
0
 10
-41.1202
 20
-24.7222
 11
-41.2118
 21
-24.6654
  0
LINE
  8
0
 10
-41.2118
 20
-24.6654
 11
-41.2997
 21
-24.6028
  0
LINE
  8
0
 10
-41.2997
 20
-24.6028
 11
-41.3834
 21
-24.5348
  0
LINE
  8
0
 10
-41.3834
 20
-24.5348
 11
-41.4627
 21
-24.4616
  0
LINE
  8
0
 10
-41.4627
 20
-24.4616
 11
-41.5371
 21
-24.3835
  0
LINE
  8
0
 10
-41.5371
 20
-24.3835
 11
-41.6065
 21
-24.3009
  0
LINE
  8
0
 10
-41.6065
 20
-24.3009
 11
-41.6704
 21
-24.214
  0
LINE
  8
0
 10
-41.6704
 20
-24.214
 11
-41.7287
 21
-24.1232
  0
LINE
  8
0
 10
-41.7287
 20
-24.1232
 11
-41.7812
 21
-24.029
  0
LINE
  8
0
 10
-41.7812
 20
-24.029
 11
-41.8276
 21
-23.9316
  0
LINE
  8
0
 10
-41.8276
 20
-23.9316
 11
-41.8677
 21
-23.8314
  0
LINE
  8
0
 10
-41.8677
 20
-23.8314
 11
-41.9013
 21
-23.7289
  0
LINE
  8
0
 10
-41.9013
 20
-23.7289
 11
-41.9284
 21
-23.6245
  0
LINE
  8
0
 10
-41.9284
 20
-23.6245
 11
-41.9488
 21
-23.5186
  0
LINE
  8
0
 10
-41.9488
 20
-23.5186
 11
-41.9625
 21
-23.4116
  0
LINE
  8
0
 10
-41.9625
 20
-23.4116
 11
-41.9693
 21
-23.3039
  0
LINE
  8
0
 10
-41.9693
 20
-23.3039
 11
-41.9693
 21
-23.1961
  0
LINE
  8
0
 10
-41.9693
 20
-23.1961
 11
-41.9625
 21
-23.0884
  0
LINE
  8
0
 10
-41.9625
 20
-23.0884
 11
-41.9488
 21
-22.9814
  0
LINE
  8
0
 10
-41.9488
 20
-22.9814
 11
-41.9284
 21
-22.8755
  0
LINE
  8
0
 10
-41.9284
 20
-22.8755
 11
-41.9013
 21
-22.771
  0
LINE
  8
0
 10
-41.9013
 20
-22.771
 11
-41.8677
 21
-22.6686
  0
LINE
  8
0
 10
-41.8677
 20
-22.6686
 11
-41.8276
 21
-22.5684
  0
LINE
  8
0
 10
-41.8276
 20
-22.5684
 11
-41.7812
 21
-22.471
  0
LINE
  8
0
 10
-41.7812
 20
-22.471
 11
-41.7287
 21
-22.3767
  0
LINE
  8
0
 10
-41.7287
 20
-22.3767
 11
-41.6704
 21
-22.286
  0
LINE
  8
0
 10
-41.6704
 20
-22.286
 11
-41.6065
 21
-22.1991
  0
LINE
  8
0
 10
-41.6065
 20
-22.1991
 11
-41.5371
 21
-22.1165
  0
LINE
  8
0
 10
-41.5371
 20
-22.1165
 11
-41.4627
 21
-22.0384
  0
LINE
  8
0
 10
-41.4627
 20
-22.0384
 11
-41.3834
 21
-21.9652
  0
LINE
  8
0
 10
-41.3834
 20
-21.9652
 11
-41.2997
 21
-21.8972
  0
LINE
  8
0
 10
-41.2997
 20
-21.8972
 11
-41.2118
 21
-21.8346
  0
LINE
  8
0
 10
-41.2118
 20
-21.8346
 11
-41.1202
 21
-21.7778
  0
LINE
  8
0
 10
-41.1202
 20
-21.7778
 11
-41.0251
 21
-21.7268
  0
LINE
  8
0
 10
-41.0251
 20
-21.7268
 11
-40.927
 21
-21.682
  0
LINE
  8
0
 10
-40.927
 20
-21.682
 11
-40.8262
 21
-21.6435
  0
LINE
  8
0
 10
-40.8262
 20
-21.6435
 11
-40.7232
 21
-21.6115
  0
LINE
  8
0
 10
-40.7232
 20
-21.6115
 11
-40.6183
 21
-21.586
  0
LINE
  8
0
 10
-40.6183
 20
-21.586
 11
-40.5121
 21
-21.5673
  0
LINE
  8
0
 10
-40.5121
 20
-21.5673
 11
-40.4049
 21
-21.5553
  0
LINE
  8
0
 10
-40.4049
 20
-21.5553
 11
-40.2971
 21
-21.5502
  0
LINE
  8
0
 10
-40.2971
 20
-21.5502
 11
-40.1893
 21
-21.5519
  0
LINE
  8
0
 10
-40.1893
 20
-21.5519
 11
-40.0818
 21
-21.5605
  0
LINE
  8
0
 10
-40.0818
 20
-21.5605
 11
-39.975
 21
-21.5758
  0
LINE
  8
0
 10
-39.975
 20
-21.5758
 11
-39.8694
 21
-21.5979
  0
LINE
  8
0
 10
-39.8694
 20
-21.5979
 11
-39.7654
 21
-21.6267
  0
LINE
  8
0
 10
-39.7654
 20
-21.6267
 11
-39.6635
 21
-21.6619
  0
LINE
  8
0
 10
-39.6635
 20
-21.6619
 11
-39.564
 21
-21.7036
  0
LINE
  8
0
 10
-39.564
 20
-21.7036
 11
-39.4673
 21
-21.7515
  0
LINE
  8
0
 10
-39.4673
 20
-21.7515
 11
-39.3739
 21
-21.8055
  0
LINE
  8
0
 10
-39.3739
 20
-21.8055
 11
-39.2841
 21
-21.8652
  0
LINE
  8
0
 10
-39.2841
 20
-21.8652
 11
-39.1982
 21
-21.9305
  0
LINE
  8
0
 10
-39.1982
 20
-21.9305
 11
-39.1167
 21
-22.0012
  0
LINE
  8
0
 10
-39.1167
 20
-22.0012
 11
-39.0398
 21
-22.0769
  0
LINE
  8
0
 10
-39.0398
 20
-22.0769
 11
-38.9679
 21
-22.1573
  0
LINE
  8
0
 10
-38.9679
 20
-22.1573
 11
-38.9012
 21
-22.2421
  0
LINE
  8
0
 10
-38.9012
 20
-22.2421
 11
-38.84
 21
-22.3309
  0
LINE
  8
0
 10
-38.84
 20
-22.3309
 11
-38.7846
 21
-22.4235
  0
LINE
  8
0
 10
-38.7846
 20
-22.4235
 11
-38.7352
 21
-22.5193
  0
LINE
  8
0
 10
-38.7352
 20
-22.5193
 11
-38.692
 21
-22.6182
  0
LINE
  8
0
 10
-38.692
 20
-22.6182
 11
-38.6551
 21
-22.7195
  0
LINE
  8
0
 10
-38.6551
 20
-22.7195
 11
-38.6247
 21
-22.823
  0
LINE
  8
0
 10
-38.6247
 20
-22.823
 11
-38.6009
 21
-22.9283
  0
LINE
  8
0
 10
-38.6009
 20
-22.9283
 11
-38.5838
 21
-23.0348
  0
LINE
  8
0
 10
-38.5838
 20
-23.0348
 11
-38.5736
 21
-23.1422
  0
LINE
  8
0
 10
-38.5736
 20
-23.1422
 11
-38.5702
 21
-23.25
  0
LINE
  8
0
 10
-38.5702
 20
-23.25
 11
-38.5736
 21
-23.3578
  0
LINE
  8
0
 10
-38.5736
 20
-23.3578
 11
-38.5838
 21
-23.4652
  0
LINE
  8
0
 10
-38.5838
 20
-23.4652
 11
-38.6009
 21
-23.5717
  0
LINE
  8
0
 10
-38.6009
 20
-23.5717
 11
-38.6247
 21
-23.6769
  0
LINE
  8
0
 10
-38.6247
 20
-23.6769
 11
-38.6551
 21
-23.7805
  0
LINE
  8
0
 10
-38.6551
 20
-23.7805
 11
-38.692
 21
-23.8818
  0
LINE
  8
0
 10
-38.692
 20
-23.8818
 11
-38.7352
 21
-23.9807
  0
LINE
  8
0
 10
-38.7352
 20
-23.9807
 11
-38.7846
 21
-24.0765
  0
LINE
  8
0
 10
-38.7846
 20
-24.0765
 11
-38.84
 21
-24.1691
  0
LINE
  8
0
 10
-38.84
 20
-24.1691
 11
-38.9012
 21
-24.2579
  0
LINE
  8
0
 10
-38.9012
 20
-24.2579
 11
-38.9679
 21
-24.3427
  0
LINE
  8
0
 10
-38.9679
 20
-24.3427
 11
-39.0398
 21
-24.4231
  0
LINE
  8
0
 10
-39.0398
 20
-24.4231
 11
-39.1167
 21
-24.4988
  0
LINE
  8
0
 10
-39.1167
 20
-24.4988
 11
-39.1982
 21
-24.5694
  0
LINE
  8
0
 10
-39.1982
 20
-24.5694
 11
-39.2841
 21
-24.6348
  0
LINE
  8
0
 10
-39.2841
 20
-24.6348
 11
-39.3739
 21
-24.6945
  0
LINE
  8
0
 10
-39.3739
 20
-24.6945
 11
-39.4673
 21
-24.7485
  0
LINE
  8
0
 10
-39.4673
 20
-24.7485
 11
-39.564
 21
-24.7964
  0
LINE
  8
0
 10
-39.564
 20
-24.7964
 11
-39.6635
 21
-24.838
  0
LINE
  8
0
 10
-39.6635
 20
-24.838
 11
-39.7654
 21
-24.8733
  0
LINE
  8
0
 10
-39.7654
 20
-24.8733
 11
-39.8694
 21
-24.9021
  0
LINE
  8
0
 10
-39.8694
 20
-24.9021
 11
-39.975
 21
-24.9242
  0
LINE
  8
0
 10
-39.975
 20
-24.9242
 11
-40.0818
 21
-24.9395
  0
LINE
  8
0
 10
-40.0818
 20
-24.9395
 11
-40.1893
 21
-24.9481
  0
LINE
  8
0
 10
-40.1893
 20
-24.9481
 11
-40.2971
 21
-24.9498
  0
LINE
  8
0
 10
-40.2971
 20
-24.9498
 11
-40.4049
 21
-24.9446
  0
LINE
  8
0
 10
40.1355
 20
-24.9446
 11
40.0282
 21
-24.9327
  0
LINE
  8
0
 10
40.0282
 20
-24.9327
 11
39.922
 21
-24.914
  0
LINE
  8
0
 10
39.922
 20
-24.914
 11
39.8172
 21
-24.8885
  0
LINE
  8
0
 10
39.8172
 20
-24.8885
 11
39.7142
 21
-24.8565
  0
LINE
  8
0
 10
39.7142
 20
-24.8565
 11
39.6134
 21
-24.818
  0
LINE
  8
0
 10
39.6134
 20
-24.818
 11
39.5153
 21
-24.7732
  0
LINE
  8
0
 10
39.5153
 20
-24.7732
 11
39.4202
 21
-24.7222
  0
LINE
  8
0
 10
39.4202
 20
-24.7222
 11
39.3285
 21
-24.6654
  0
LINE
  8
0
 10
39.3285
 20
-24.6654
 11
39.2406
 21
-24.6028
  0
LINE
  8
0
 10
39.2406
 20
-24.6028
 11
39.1569
 21
-24.5348
  0
LINE
  8
0
 10
39.1569
 20
-24.5348
 11
39.0777
 21
-24.4616
  0
LINE
  8
0
 10
39.0777
 20
-24.4616
 11
39.0032
 21
-24.3835
  0
LINE
  8
0
 10
39.0032
 20
-24.3835
 11
38.9339
 21
-24.3009
  0
LINE
  8
0
 10
38.9339
 20
-24.3009
 11
38.8699
 21
-24.214
  0
LINE
  8
0
 10
38.8699
 20
-24.214
 11
38.8116
 21
-24.1232
  0
LINE
  8
0
 10
38.8116
 20
-24.1232
 11
38.7592
 21
-24.029
  0
LINE
  8
0
 10
38.7592
 20
-24.029
 11
38.7128
 21
-23.9316
  0
LINE
  8
0
 10
38.7128
 20
-23.9316
 11
38.6727
 21
-23.8314
  0
LINE
  8
0
 10
38.6727
 20
-23.8314
 11
38.639
 21
-23.7289
  0
LINE
  8
0
 10
38.639
 20
-23.7289
 11
38.6119
 21
-23.6245
  0
LINE
  8
0
 10
38.6119
 20
-23.6245
 11
38.5915
 21
-23.5186
  0
LINE
  8
0
 10
38.5915
 20
-23.5186
 11
38.5779
 21
-23.4116
  0
LINE
  8
0
 10
38.5779
 20
-23.4116
 11
38.571
 21
-23.3039
  0
LINE
  8
0
 10
38.571
 20
-23.3039
 11
38.571
 21
-23.1961
  0
LINE
  8
0
 10
38.571
 20
-23.1961
 11
38.5779
 21
-23.0884
  0
LINE
  8
0
 10
38.5779
 20
-23.0884
 11
38.5915
 21
-22.9814
  0
LINE
  8
0
 10
38.5915
 20
-22.9814
 11
38.6119
 21
-22.8755
  0
LINE
  8
0
 10
38.6119
 20
-22.8755
 11
38.639
 21
-22.771
  0
LINE
  8
0
 10
38.639
 20
-22.771
 11
38.6727
 21
-22.6686
  0
LINE
  8
0
 10
38.6727
 20
-22.6686
 11
38.7128
 21
-22.5684
  0
LINE
  8
0
 10
38.7128
 20
-22.5684
 11
38.7592
 21
-22.471
  0
LINE
  8
0
 10
38.7592
 20
-22.471
 11
38.8116
 21
-22.3767
  0
LINE
  8
0
 10
38.8116
 20
-22.3767
 11
38.8699
 21
-22.286
  0
LINE
  8
0
 10
38.8699
 20
-22.286
 11
38.9339
 21
-22.1991
  0
LINE
  8
0
 10
38.9339
 20
-22.1991
 11
39.0032
 21
-22.1165
  0
LINE
  8
0
 10
39.0032
 20
-22.1165
 11
39.0777
 21
-22.0384
  0
LINE
  8
0
 10
39.0777
 20
-22.0384
 11
39.1569
 21
-21.9652
  0
LINE
  8
0
 10
39.1569
 20
-21.9652
 11
39.2406
 21
-21.8972
  0
LINE
  8
0
 10
39.2406
 20
-21.8972
 11
39.3285
 21
-21.8346
  0
LINE
  8
0
 10
39.3285
 20
-21.8346
 11
39.4202
 21
-21.7778
  0
LINE
  8
0
 10
39.4202
 20
-21.7778
 11
39.5153
 21
-21.7268
  0
LINE
  8
0
 10
39.5153
 20
-21.7268
 11
39.6134
 21
-21.682
  0
LINE
  8
0
 10
39.6134
 20
-21.682
 11
39.7142
 21
-21.6435
  0
LINE
  8
0
 10
39.7142
 20
-21.6435
 11
39.8172
 21
-21.6115
  0
LINE
  8
0
 10
39.8172
 20
-21.6115
 11
39.922
 21
-21.586
  0
LINE
  8
0
 10
39.922
 20
-21.586
 11
40.0282
 21
-21.5673
  0
LINE
  8
0
 10
40.0282
 20
-21.5673
 11
40.1355
 21
-21.5553
  0
LINE
  8
0
 10
40.1355
 20
-21.5553
 11
40.2432
 21
-21.5502
  0
LINE
  8
0
 10
40.2432
 20
-21.5502
 11
40.3511
 21
-21.5519
  0
LINE
  8
0
 10
40.3511
 20
-21.5519
 11
40.4586
 21
-21.5605
  0
LINE
  8
0
 10
40.4586
 20
-21.5605
 11
40.5654
 21
-21.5758
  0
LINE
  8
0
 10
40.5654
 20
-21.5758
 11
40.671
 21
-21.5979
  0
LINE
  8
0
 10
40.671
 20
-21.5979
 11
40.7749
 21
-21.6267
  0
LINE
  8
0
 10
40.7749
 20
-21.6267
 11
40.8769
 21
-21.6619
  0
LINE
  8
0
 10
40.8769
 20
-21.6619
 11
40.9764
 21
-21.7036
  0
LINE
  8
0
 10
40.9764
 20
-21.7036
 11
41.073
 21
-21.7515
  0
LINE
  8
0
 10
41.073
 20
-21.7515
 11
41.1665
 21
-21.8055
  0
LINE
  8
0
 10
41.1665
 20
-21.8055
 11
41.2563
 21
-21.8652
  0
LINE
  8
0
 10
41.2563
 20
-21.8652
 11
41.3421
 21
-21.9305
  0
LINE
  8
0
 10
41.3421
 20
-21.9305
 11
41.4236
 21
-22.0012
  0
LINE
  8
0
 10
41.4236
 20
-22.0012
 11
41.5005
 21
-22.0769
  0
LINE
  8
0
 10
41.5005
 20
-22.0769
 11
41.5724
 21
-22.1573
  0
LINE
  8
0
 10
41.5724
 20
-22.1573
 11
41.6391
 21
-22.2421
  0
LINE
  8
0
 10
41.6391
 20
-22.2421
 11
41.7003
 21
-22.3309
  0
LINE
  8
0
 10
41.7003
 20
-22.3309
 11
41.7557
 21
-22.4235
  0
LINE
  8
0
 10
41.7557
 20
-22.4235
 11
41.8051
 21
-22.5193
  0
LINE
  8
0
 10
41.8051
 20
-22.5193
 11
41.8484
 21
-22.6182
  0
LINE
  8
0
 10
41.8484
 20
-22.6182
 11
41.8853
 21
-22.7195
  0
LINE
  8
0
 10
41.8853
 20
-22.7195
 11
41.9157
 21
-22.823
  0
LINE
  8
0
 10
41.9157
 20
-22.823
 11
41.9395
 21
-22.9283
  0
LINE
  8
0
 10
41.9395
 20
-22.9283
 11
41.9565
 21
-23.0348
  0
LINE
  8
0
 10
41.9565
 20
-23.0348
 11
41.9668
 21
-23.1422
  0
LINE
  8
0
 10
41.9668
 20
-23.1422
 11
41.9702
 21
-23.25
  0
LINE
  8
0
 10
41.9702
 20
-23.25
 11
41.9668
 21
-23.3578
  0
LINE
  8
0
 10
41.9668
 20
-23.3578
 11
41.9565
 21
-23.4652
  0
LINE
  8
0
 10
41.9565
 20
-23.4652
 11
41.9395
 21
-23.5717
  0
LINE
  8
0
 10
41.9395
 20
-23.5717
 11
41.9157
 21
-23.6769
  0
LINE
  8
0
 10
41.9157
 20
-23.6769
 11
41.8853
 21
-23.7805
  0
LINE
  8
0
 10
41.8853
 20
-23.7805
 11
41.8484
 21
-23.8818
  0
LINE
  8
0
 10
41.8484
 20
-23.8818
 11
41.8051
 21
-23.9807
  0
LINE
  8
0
 10
41.8051
 20
-23.9807
 11
41.7557
 21
-24.0765
  0
LINE
  8
0
 10
41.7557
 20
-24.0765
 11
41.7003
 21
-24.1691
  0
LINE
  8
0
 10
41.7003
 20
-24.1691
 11
41.6391
 21
-24.2579
  0
LINE
  8
0
 10
41.6391
 20
-24.2579
 11
41.5724
 21
-24.3427
  0
LINE
  8
0
 10
41.5724
 20
-24.3427
 11
41.5005
 21
-24.4231
  0
LINE
  8
0
 10
41.5005
 20
-24.4231
 11
41.4236
 21
-24.4988
  0
LINE
  8
0
 10
41.4236
 20
-24.4988
 11
41.3421
 21
-24.5694
  0
LINE
  8
0
 10
41.3421
 20
-24.5694
 11
41.2563
 21
-24.6348
  0
LINE
  8
0
 10
41.2563
 20
-24.6348
 11
41.1665
 21
-24.6945
  0
LINE
  8
0
 10
41.1665
 20
-24.6945
 11
41.073
 21
-24.7485
  0
LINE
  8
0
 10
41.073
 20
-24.7485
 11
40.9764
 21
-24.7964
  0
LINE
  8
0
 10
40.9764
 20
-24.7964
 11
40.8769
 21
-24.838
  0
LINE
  8
0
 10
40.8769
 20
-24.838
 11
40.7749
 21
-24.8733
  0
LINE
  8
0
 10
40.7749
 20
-24.8733
 11
40.671
 21
-24.9021
  0
LINE
  8
0
 10
40.671
 20
-24.9021
 11
40.5654
 21
-24.9242
  0
LINE
  8
0
 10
40.5654
 20
-24.9242
 11
40.4586
 21
-24.9395
  0
LINE
  8
0
 10
40.4586
 20
-24.9395
 11
40.3511
 21
-24.9481
  0
LINE
  8
0
 10
40.3511
 20
-24.9481
 11
40.2432
 21
-24.9498
  0
LINE
  8
0
 10
40.2432
 20
-24.9498
 11
40.1355
 21
-24.9446
  0
LINE
  8
0
 10
-3
 20
-46.5
 11
-3
 21
-37.9
  0
LINE
  8
0
 10
-3
 20
-37.9
 11
3
 21
-37.9
  0
LINE
  8
0
 10
3
 20
-37.9
 11
3
 21
-46.5
  0
LINE
  8
0
 10
3
 20
-46.5
 11
-3
 21
-46.5
  0
ENDSEC
  0
SECTION
  2
OBJECTS
  0
DICTIONARY
  0
ENDSEC
  0
EOF
